<?xml version="1.0" encoding="UTF-8" standalone="no"?>
<!-- Created with Inkscape (http://www.inkscape.org/) -->

<svg
   xmlns:dc="http://purl.org/dc/elements/1.1/"
   xmlns:cc="http://creativecommons.org/ns#"
   xmlns:rdf="http://www.w3.org/1999/02/22-rdf-syntax-ns#"
   xmlns:svg="http://www.w3.org/2000/svg"
   xmlns="http://www.w3.org/2000/svg"
   xmlns:sodipodi="http://sodipodi.sourceforge.net/DTD/sodipodi-0.dtd"
   xmlns:inkscape="http://www.inkscape.org/namespaces/inkscape"
   viewBox="0 0 164 200"
   version="1.1"
   id="svg10978"
   sodipodi:docname="logo.svg"
   inkscape:version="0.92.4 (5da689c313, 2019-01-14)">
  <defs
     id="defs10972" />
  <sodipodi:namedview
     id="base"
     pagecolor="#ffffff" 
     bordercolor="#666666"
     borderopacity="1.0"
     inkscape:pageopacity="0.0"
     inkscape:pageshadow="2"
     inkscape:zoom="0.7"
     inkscape:cx="27.528285"
     inkscape:cy="325.60933"
     inkscape:document-units="mm"
     inkscape:current-layer="layer1"
     showgrid="false"
     inkscape:window-width="1858"
     inkscape:window-height="1057"
     inkscape:window-x="54"
     inkscape:window-y="-8"
     inkscape:window-maximized="1"
     inkscape:snap-page="true" />
  <metadata
     id="metadata10975">
    <rdf:RDF>
      <cc:Work
         rdf:about="">
        <dc:format>image/svg+xml</dc:format>
        <dc:type
           rdf:resource="http://purl.org/dc/dcmitype/StillImage" />
        <dc:title></dc:title>
      </cc:Work>
    </rdf:RDF>
  </metadata>
  <g
     inkscape:label="Layer 1"
     inkscape:groupmode="layer"
     id="layer1"
     transform="translate(0,-97)">
    <path
       style="fill:#005020;fill-opacity:1;stroke-width:1.24781036"
       d="m 3.1140077,294.34595 c -2.103076,-2.09256 -0.647887,-13.27475 2.7656997,-21.2525 1.979819,-4.62696 4.2380756,-12.52191 5.0183456,-17.54443 1.825982,-11.75361 6.204402,-20.83653 14.30104,-29.66733 6.802046,-7.41879 16.69053,-14.50572 18.60086,-13.33098 0.618197,0.38014 -2.700959,4.71467 -7.375863,9.63223 -9.112197,9.58519 -15.798829,20.40593 -15.152532,24.52084 0.360578,2.29583 1.131113,2.00206 8.196643,-3.12489 12.109381,-8.78694 12.653205,-6.69497 1.198336,4.60974 -10.154906,10.02185 -18.378998,22.78176 -18.378998,28.51557 0,3.13852 0.541834,2.99347 10.248363,-2.74431 18.527819,-10.95221 36.834711,-15.01447 55.687525,-12.35685 6.0482,0.85259 14.092792,2.58024 17.876883,3.83924 13.44195,4.47224 19.37775,1.61805 11.14841,-5.36062 l -4.26827,-3.61961 11.25845,0.74398 c 14.70388,0.97155 18.45665,-0.76879 23.41912,-10.86058 2.28747,-4.65186 4.80749,-7.80199 7.24461,-9.05597 2.05535,-1.05756 2.80157,-2.39442 2.80157,-2.80743 0,-0.41308 -2.10711,-3.52614 -5.82577,-7.08132 -8.91387,-8.52204 -12.00285,-17.72055 -12.00285,-35.74257 0,-10.75421 -0.42894,-13.29515 -3.24411,-19.21621 -4.92601,-10.3607 -15.38018,-20.83414 -25.97194,-26.01983 -8.821991,-4.31919 -25.687246,-8.01384 -33.302974,-7.78865 -4.721966,-0.0262 -7.400956,-1.16655 -4.587404,-2.93803 0,0 6.56204,-3.54476 9.773912,-3.55525 5.110813,-0.0167 6.672423,-0.72769 12.509383,-5.69568 6.840392,-5.82201 14.336673,-10.68796 20.942853,-14.03976 3.35222,-1.70082 9.77719,-4.35152 14.88347,-6.76691 1.48041,-0.70027 2.57337,-1.72045 3.69723,-2.56703 1.3615,-1.0256 1.46273,-1.08812 3.38603,-2.3296 0,0 2.64659,-1.87707 3.00381,-1.85798 0.54927,0.0294 -1.37012,2.43698 -1.87925,2.87272 -1.66099,1.42155 -4.73878,3.88757 -4.92669,4.24039 -0.23107,0.43388 5.16304,-3.30869 5.44382,-3.27069 1.51828,0.20547 -5.17137,5.6913 -5.06811,6.99249 1.0886,13.71767 0.0373,20.82723 -1.77378,30.02194 l -2.11369,10.73067 4.51886,5.25291 c 2.48536,2.88909 6.47003,8.98248 8.85482,13.54081 4.05752,7.75564 4.37068,9.20723 4.87599,22.60189 0.40807,10.81665 1.15916,15.69249 3.07411,19.9562 2.9873,6.65121 7.51029,12.46398 11.62128,15.38151 2.8009,3.25005 2.51294,6.72365 2.51294,6.72365 -0.52366,4.6218 -3.85983,7.74396 -7.26361,9.52927 -1.35484,0.42798 -3.41607,2.7756 -4.58049,5.2172 -3.46412,7.26363 -10.37688,13.96929 -16.0875,15.60544 -3.06302,0.8776 -6.60719,3.15206 -8.67433,5.5668 -5.7238,6.68613 -10.19656,7.164 -27.040601,2.88904 -31.852531,-8.08398 -55.748338,-2.66298 -80.709974,18.30971 -4.8647026,4.08736 -7.0179626,4.91039 -8.6356273,3.30077 z M 116.46017,137.84261 c 0.56339,-3.34364 0.85698,-8.93942 0.65244,-12.43505 -0.34411,-5.88124 -0.62559,-6.3848 -3.77091,-6.7456 -3.62184,-0.41548 -18.53403,7.44653 -22.596861,11.91349 -2.599872,2.85849 -1.55688,4.10851 5.355471,6.41846 2.40804,0.80472 6.91141,2.82002 10.0075,4.47844 7.69843,4.1237 9.13057,3.62157 10.35236,-3.62974 z m -17.47536,63.04777 c -0.43436,-1.19804 -3.16036,-2.5959 -4.42443,-4.41304 -1.264041,-1.81713 -0.961951,-4.9866 -0.961951,-5.73665 0,-1.17024 9.139741,0.71934 13.539491,2.16937 0.66893,0.22046 -4.12085,4.20108 -3.61903,4.40811 0.53235,0.21964 5.73908,-2.54935 6.00104,-2.36747 2.39902,1.66579 6.78503,5.56073 5.984,6.85033 -0.43297,0.69711 -4.1492,1.26743 -8.25825,1.26743 -3.4141,0 -5.41632,-0.14168 -6.62363,-0.58765 -0.90754,-0.33523 -1.36593,-0.8424 -1.63722,-1.59056 z M 19.781605,183.30155 c 0.582855,-5.35874 -4.624827,-1.50522 -7.781616,-37.93725 1.985331,-11.27152 4.260162,-11.39062 7.340524,-17.51754 2.431932,-4.83718 5.851775,-10.67105 7.599631,-12.96414 2.690226,-3.5294 -22.2528906,-17.58796 -4.928771,-9.85674 0.446284,0.19917 15.386635,7.9275 1.488986,-1.42324 -1.1059,-0.74408 -2.409129,-3.4329 -1.262882,-2.86747 8.477311,4.18174 27.400266,20.37001 32.665864,27.47041 5.673426,7.65034 11.037293,19.40321 9.536795,20.89626 -0.352923,0.35123 -2.864776,-2.34567 -5.581965,-5.99292 -9.655824,-12.96098 -20.684498,-21.29337 -25.614657,-19.35239 -2.41088,0.94916 -11.137126,13.61849 -13.722129,21.41509 -2.467994,9.86193 -0.457855,15.07267 0.308536,23.9513 3.432952,5.53026 -0.04832,14.17863 -0.04832,14.17863 z m 12.07784,-2.34379 c -1.647034,-2.65166 -3.443954,-17.86618 -2.754273,-23.32044 1.015306,-8.02957 4.239141,-18.06548 6.706985,-20.87906 1.833203,-2.09001 2.16936,-1.98969 6.256608,1.86704 5.559479,5.24595 11.499672,14.4108 11.499672,17.74237 0,1.51253 -2.918186,5.44392 -6.979413,9.40267 -3.838685,3.74181 -8.072034,8.9037 -9.40745,11.47089 -2.340951,4.50018 -4.080743,5.71511 -5.322129,3.71653 z"
       id="path10961"
       inkscape:connector-curvature="0"
       sodipodi:nodetypes="cssccscccscsscccscscsscccccsssssssssccscccccccccccccccscccccsssccssccccscsssscccccccccccsccc" />
  </g>
</svg>
